<svg width="24" height="20" viewBox="0 0 24 20" fill="none" xmlns="http://www.w3.org/2000/svg">
<path fill-rule="evenodd" clip-rule="evenodd" d="M6.00336 4.98523V8.90779H3.57744V2.86891C9.43584 1.03435 14.5757 1.10203 20.4394 2.87371V8.90827H18.0134V4.97803C13.6469 3.54811 10.3637 3.49531 6.00336 4.98523ZM16.6498 8.90779H7.36704V5.97979C10.6766 4.99243 13.3392 5.02699 16.6498 5.98363V8.90779ZM1.60368 18.0998H22.3963L22.6363 19.8479H24V8.90779H21.803V1.87339C14.941 -0.37925 9.06528 -0.46565 2.21376 1.88107V8.90779H0V19.8479H1.36368L1.60368 18.0998ZM1.36368 15.4147H22.6368V16.7366H1.36368V15.4147ZM1.36368 10.2715H22.6368V14.0505H1.36368V10.2715Z" fill="#444444"/>
</svg>
